<svg xmlns="http://www.w3.org/2000/svg" xmlns:xlink="http://www.w3.org/1999/xlink" version="1.2" viewBox="0 0 300 301" baseProfile="tiny-ps">  <title>Sapphire_HMP_Color_Logo</title>  <g transform="translate(0.000000,301.000000) scale(0.100000,-0.100000)">    <g>      <g id="Flag">        <path d="M1227.1,2080.9c41,12,245,8,292-6c46.4-18.2-65.6,80.7-75,94c-110.5,9-229.8,17.2-347,19.7     l108.6-115.8C1211.7,2075.5,1219.1,2078.3,1227.1,2080.9z" fill="#BB3633"/>        <path d="M1072.3,2188.1l117.4-127.8c-2.3,4.7,5.3,7.3,15.9,12.6L1097,2188.6c-17.3,0.5-33.9,0.8-49.5,1     l157.6-149.7C1201.2,2048.7,1082.8,2176.8,1072.3,2188.1z" fill="#BB3633"/>        <path d="M1307.1,1943.1l96.4-91.6c-13.2,14.8-23,28-22.7,32.3L1307.1,1943.1z" fill="#BB3633"/>        <path d="M1479.9,1784l44.4-48.4l3.4-3.3l-48,52.4c-5.8,1.5-9.7,5.4-15.5,9.4l60.1-58.4L1479.9,1784z" fill="#BB3633"/>        <path d="M1475.2,1796.7l94.3-87L1475.2,1796.7c-4.9-0.3-8.9,0.3-12.2,1.6c1.1-1.3,2.3-2.7,3.7-4.2l9-9.6     c11.3-11.7,26.5-26.6,41.5-41.1l46.8-44.4c-9.7,9.1-28,26.4-46.8,44.4l-25.4,24.2l68.5-73c58.6,44.9,134.2,87.6,217.7,85.4l46,1     C1664.3,1860.3,1630.9,1854.4,1475.2,1796.7z" fill="#BB3633"/>        <path d="M1475.8,1784.5l-9,9.6C1469.3,1791.3,1472.4,1788,1475.8,1784.5z" fill="#BB3633"/>        <path d="M1517.3,1743.4c18.8-18.1,37.1-35.3,46.8-44.4L1517.3,1743.4z" fill="#BB3633"/>        <path d="M1030.2,2189.8l9.2-0.1C1036.7,2189.8,1033.7,2189.8,1030.2,2189.8z" fill="#1C4982"/>        <path d="M1491.9,1767.6c-0.5,0.4-0.9,0.8-1.4,1.2l59.4-63.2l-59.4,63.2c-63.8,56.5-146.2,144.8-214,198.9     l30.6-24.6l-28.1,26.7l-3.9-0.9c-46.6,48.8-176.6,173.1-227.5,220.7c-2,0-4.8,0.1-8.2,0.1l-9.2,0.1c-42.1,0.2-135,0-156.2,0.1     c-67.6,50.6-229.5,166.7-279,160c60.3-141.6,327.3-598.2,441-815c92.7,1.2,199.9-5.5,285-28c57.5,85.5,149.9,163.7,239.3,187.6     L1491.9,1767.6z M1246.1,1860.9c6,6,9,18,5,27c-10,24.5,29-3.5,35,15c5,8,9,6,11-8c3-11,12-25,21-32c31.2-20.1-22.2-5.9-26-29     c-5-15-7-15-15,0C1271.3,1854.9,1227.4,1844.3,1246.1,1860.9z M1009.1,2084.9c16.6,14.8-11.3,42,13,32c21.6-10.9,29.2,25.1,35,3     c3-8,12-20,21-27c14-11,14-12-1-13c-26.1,2.8-10.3-42.6-30-22C1038.4,2075.1,985.9,2061.1,1009.1,2084.9z M779.1,2162.9     c4-30.1-35.3,24.1-61,17c-45,1.7,22.3,9.2-7,41c-13,20-12,21,16,14c20-4,33-2,38,7c12.5,20.9,16.2-40.6,39-42     C844.6,2188.9,774.3,2186.8,779.1,2162.9z M869.1,2016.9c0.9-41.1-18.6,18.4-50,13c-41.7-1.1,17.6,24.8-11,47     c-31,31.1,45.1-6.8,48,15c17.7,21.8-5.8-32.4,58-45C895.8,2044.2,867.1,2040.9,869.1,2016.9z M1002.1,1850.9     c-37.9,6.2-11.4-65.2-37-28c-11.5,24.5-81.2,7.1-45,44c8,8,8,13,0,17c-19,12-13,28,7,17c11-6,24-6,35,0c25.7,16.5,10-20.4,40-34     l22-16H1002.1z M1019.1,1953.9c0-19-19-18-26,1c-4,11-14,13-33,8c-50.5-14.1,17.8,23.5-9,48c-30.5,47,33.6-12.3,43,9     c10,17,25,11,25-9c-0.9-19.4,28.9-28.8,45-34C1050,1974.9,1018.5,1970.5,1019.1,1953.9z M1149.1,1619.9c-36.1,7.7-3.4-73.3-38-37     c-10,10-31,17-47,17c-57.7-1.4,26,25.5-11,58c-32.8,41.3,41.9-4.8,57,28c13,16,14,15,17-10c2-18,11-30,23-33     C1175.1,1635.9,1175.1,1619.9,1149.1,1619.9z M1179.1,1789.9c-26.3-3.8-31.6-33.6-36-55c-24.3,76-97.3,22.9-60,64     c36.1,21.2-35.3,83.6,28,50c16-9,24-7,36,5c47.6,46.7-7.4-36.8,34-45l23-13L1179.1,1789.9z M1201.1,1958.9     c-32.4-7.9-14.7-60.3-33-26c-7.7,24.3-62.6,8-39,32c7,8,10,20,7,27c-9.1,19.2,56.8,15.5,53,0     C1184.8,1973.8,1239.8,1969.6,1201.1,1958.9z M1338.1,1649.9c-38.6-2.8-16.4-70.5-49-35c-11,10-28,15-40,12     c-50.4-8.2,16.6,25.7-10,53c-25.8,41.3,36.3-3.8,51,27c28.8,33.3-7.2-27.9,72-52L1338.1,1649.9z M1414.1,1752.9     c-13-13-20-14-23-5c-7.8,17.6-29,6.9-27,35c-8.4,25.3,50.7,31.2,48,14C1405.9,1776.1,1443.4,1779.2,1414.1,1752.9z" fill="#1C4982"/>        <path d="M1279,1969.8c17.2-19,81-69.4,101.8-86c0,0.7,0,1.2,0.7,1.5l-83.3,88.8L1279,1969.8z" fill="#BB3633"/>        <path d="M1698.1,1910.9c-83.6,93.6-285.2,86.2-399.8,63.1l83.3-88.8c71.2,32.5,250.9,22.7,324.6-2.3     C1720.1,1877.9,1719.1,1882.9,1698.1,1910.9z" fill="#BB3633"/>        <path d="M1060,2183.5c-16.5,19.3-42.2-11.5-28.7-28.6l52.7-0.8L1060,2183.5z" fill="#1C4982"/>        <path d="M1464,1797c-116.7,117.1-318.2,319-391.6,392.2l-32.7,0.5l-12.6,0.1l502.1-501.6     c0.7-0.7,1.9-0.7,2.7,0l17.7,17.7L1464,1797z" fill="#1C4982"/>      </g>    </g>    <rect x="1006.021" y="1791.65" transform="matrix(0.7071 -0.7071 0.7071 0.7071 -938.1597 1259.5823)" width="90.699" height="-58.799" fill="none"/>    <path d="M1504.1,1724.7l-445.8,475.1l-44.4,0.6c0.3-0.3,0.4-0.8,0.7-1.1l466-496.7   c5.4-5.8,14.5-6.1,20.2-0.6l2.6,2.5C1509.2,1709.9,1509.5,1719,1504.1,1724.7z" fill="none"/>    <g>      <path d="M1962.1,1703.8l67-50l118-5c66-3,128-9,139-13s5,4-13,17c-21,17-51,28-88,32c-30,3-83,18-117,32    c-33,14-86,28-116,32l-56,5L1962.1,1703.8z" fill="#BB3633"/>      <path d="M1768.1,1709.8c-37-9-117-45-117-54c0-2,27-23,61-45l60-42l34,27c43,32,106,55,152,55    c45,0,35,15-31,46C1874.1,1721.8,1832.1,1724.8,1768.1,1709.8z" fill="#BB3633"/>      <path d="M1645.1,1566.8c-46-14-116-60-153-100l-24-26h93c73,0,103,4,135,20c22,11,72,23,110,28l70,8l-70,36    C1717.1,1577.8,1696.1,1581.8,1645.1,1566.8z" fill="#BB3633"/>      <path d="M2241.1,1540.8c6-10,15-22,20-25c6-3,10-10,10-14c0-5-21,2-47,15c-81,42-156,28-223-41l-34-35h297    c163,0,297,2,297,4c0,11-113,87-124,83c-7-3-39,1-72,8c-32,7-76,15-97,18C2234.1,1558.8,2232.1,1557.8,2241.1,1540.8z" fill="#BB3633"/>      <path d="M1741.1,1893.8c0-5,17-25,38-44c35-34,40-36,112-37c70-1,123-14,265-67c12-4,1,11-25,37    c-62,61-192,110-307,116C1778.1,1900.8,1741.1,1898.8,1741.1,1893.8z" fill="#BB3633"/>      <path d="M1561.1,2062.8c0-4,16-24,36-43c33-32,41-35,137-46c59-6,123-20,152-33l50-21l-24,25    c-45,48-101,79-174,96C1643.1,2062.8,1561.1,2073.8,1561.1,2062.8z" fill="#BB3633"/>    </g>    <path d="M561.1,920.8v-310h75h75v135v135h115h115v-135v-135h70h70v310v310h-70h-70v-115v-115h-115h-115v115   v115h-75h-75V920.8z" fill="#1C4982"/>    <path d="M1221.1,920.8v-310h70h70v220c0,121,4,220,8,220c5,0,43-98,84-217l76-218l48-3l49-3l68,198   c103,297,95,295,96,31l1-228h70h70v310v311l-102-3l-102-3l-68-195c-38-107-71-202-74-210c-5-13-6-13-13,0c-5,8-39,104-76,213   l-68,197h-103h-104V920.8z" fill="#1C4982"/>    <path d="M2071.1,920.8v-310h70h69l3,108l3,107l125,5c132,6,164,16,207,62c31,33,43,71,43,139   c0,73-17,116-59,152c-48,40-90,47-283,47h-178V920.8z M2390.1,1109.8c37-13,51-35,51-82c0-23-8-41-26-58c-22-21-34-24-112-24h-87   l-3,74c-2,41-1,80,2,88C2222.1,1123.8,2343.1,1125.8,2390.1,1109.8z" fill="#1C4982"/>    <path d="M920.8,2267.2c1.4-0.4,2.5-0.7,3.8-1c-0.4,0.4-0.8,0.8-1.1,1   C905.3,2284.4,877.3,2278.4,920.8,2267.2z" fill="#1C4982"/>    <path d="M901.2,2247.6c0-0.2,0.3-0.4,0.6-0.6C902.4,2250.7,900.6,2252.2,901.2,2247.6z" fill="#1C4982"/>    <path d="M945.5,2245.6c-15.9-1.9-39.9-0.8-43.7,1.4c-0.1-0.7-0.3-1.4-0.6-2.2   c0-0.1,0.2-0.5,0.7-1.1c15.2,0,30.4,0,45.6,0C946.8,2244.3,946.1,2245,945.5,2245.6z" fill="#1C4982"/>    <polygon points="907,2240 907.1,2239.9 919.7,2239.8  " fill="#1C4982"/>    <path d="M1496.4,1737.4c0,0-35.8,34.7-88.3,85.6l87.1-89.6l1.3,1.3   C1497.2,1735.5,1497.2,1736.7,1496.4,1737.4z" fill="#1C4982"/>    <path d="M947.4,2243.7c-15.2,0-30.4,0-45.6,0c0.6-0.8,1.7-2.1,3.2-3.8l46.9-0.8   C950.4,2240.7,948.9,2242.2,947.4,2243.7z" fill="#1C4982"/>    <path d="M924.7,2266.2c3-2.9,10.2-10,20.8-20.6C963.9,2247.8,971.4,2253.8,924.7,2266.2z" fill="#1C4982"/>  </g>  <line x1="91.3" y1="58.8" x2="151.2" y2="118.6" fill="none"/></svg>